<svg width="241" height="132" viewBox="0 0 241 132" fill="none" xmlns="http://www.w3.org/2000/svg">
<path d="M61.5 109.038L32.5 109.038L77.7403 49.5928L97.0863 51.6619L108.607 36.7901L131.158 9.30469L155.818 29.5421L178 76.6586L173 76.6586L154.517 41.7006L111.994 100.69L95.7859 63.8204L61.5 109.038Z" fill="#092F1A" stroke="#020F08" stroke-width="0.2"/>
<path d="M39.625 106.627L39.7188 109.815C39.7188 110.357 39.5625 110.773 39.25 111.065C38.9375 111.357 38.5729 111.502 38.1562 111.502C37.7604 111.502 37.4375 111.367 37.1875 111.096C36.9583 110.825 36.8438 110.482 36.8438 110.065C36.8438 109.648 36.8958 109.179 37 108.659C37.1458 108.013 37.2188 106.398 37.2188 103.815V81.0024H21.5V111.159H5.53125V66.9399H21.5V78.7211C26 78.7211 29.5833 78.7211 32.25 78.7211C34.9375 78.7211 36.5938 78.7107 37.2188 78.6899V73.2524C37.2188 71.4399 37.1875 70.2628 37.125 69.7211L37 68.7836C36.9792 68.492 36.9688 68.242 36.9688 68.0336C36.9688 67.0753 37.4062 66.5961 38.2812 66.5961C38.5938 66.5961 38.9167 66.7211 39.25 66.9711C39.5833 67.2211 39.75 67.6378 39.75 68.2211L39.625 72.2211V78.5649L41.5938 78.2836C41.9688 78.2836 42.2812 78.3982 42.5312 78.6274C42.7812 78.8357 42.9062 79.117 42.9062 79.4711C42.9062 80.2836 42.2604 80.742 40.9688 80.8461C40.7396 80.8878 40.5104 80.919 40.2812 80.9399C40.0729 80.9399 39.8542 80.9503 39.625 80.9711V106.627ZM59.0312 105.596C55.2188 105.596 52.6146 105.565 51.2188 105.502L50.3125 107.659C50.0417 108.263 49.7917 108.898 49.5625 109.565C49.0833 110.857 48.4167 111.502 47.5625 111.502C47.1667 111.502 46.8438 111.377 46.5938 111.127C46.3438 110.877 46.2188 110.617 46.2188 110.346C46.2188 109.888 46.4167 109.377 46.8125 108.815C47.4375 107.94 48.0521 106.794 48.6562 105.377C46.8646 105.211 45.9688 104.69 45.9688 103.815C45.9688 102.94 46.4792 102.502 47.5 102.502C48.125 102.502 48.8542 102.607 49.6875 102.815L65.2812 64.9399L86.6562 111.159H70.375L67.7812 105.596H59.0312ZM52.2188 103.065C54.2188 103.232 56.0104 103.315 57.5938 103.315H66.75L58.9375 86.4711L52.2188 103.065ZM93.5938 66.9399C99.2188 66.9399 103.688 66.9399 107 66.9399C110.333 66.9399 112.354 66.9503 113.062 66.9711C116.146 67.117 118.323 67.4815 119.594 68.0649C120.865 68.6274 121.875 69.2628 122.625 69.9711C124.229 71.5545 125.031 73.4711 125.031 75.7211C125.031 77.9503 124.25 79.9086 122.688 81.5961C122.208 82.117 121.656 82.5649 121.031 82.9399C124.427 83.5649 127.208 84.992 129.375 87.2211C131.729 89.6378 132.906 92.5857 132.906 96.0649C132.906 99.6065 131.812 102.659 129.625 105.221C126.562 108.763 121.833 110.7 115.438 111.034C113.812 111.117 112.208 111.159 110.625 111.159H93.5938V66.9399ZM114.094 82.3149L115.688 82.5024H116.188C117.833 82.5024 119.26 81.8982 120.469 80.6899C121.76 79.3982 122.406 77.8149 122.406 75.9399C122.406 73.6482 121.417 71.8878 119.438 70.6586C118.438 70.0336 117.438 69.669 116.438 69.5649C115.458 69.4399 114.688 69.3565 114.125 69.3149C112.958 69.2315 111.427 69.1899 109.531 69.1899V108.846H113C116.542 108.846 119.427 108.409 121.656 107.534C124.323 106.617 126.438 105.138 128 103.096C129.479 101.159 130.219 99.1274 130.219 97.0024C130.219 94.8774 129.906 93.0857 129.281 91.6274C128.656 90.169 127.75 88.9295 126.562 87.9086C124.146 85.8045 120.781 84.7524 116.469 84.7524L114.312 84.9399C113.646 84.9399 113.156 84.8045 112.844 84.5336C112.531 84.2628 112.375 83.9503 112.375 83.5961C112.375 82.742 112.948 82.3149 114.094 82.3149ZM140.062 66.9399H156V111.159H140.062V66.9399ZM198.625 67.7524C198.625 68.7107 197.615 69.1899 195.594 69.1899H188.344V111.159H172.344V69.1899H167.656C166.052 69.1899 164.948 69.2628 164.344 69.4086C163.552 69.5753 162.979 69.6586 162.625 69.6586C161.562 69.6586 161.031 69.242 161.031 68.4086C161.031 67.4295 162.062 66.9399 164.125 66.9399H192C193.438 66.9399 194.5 66.8774 195.188 66.7524C196.021 66.6065 196.646 66.5336 197.062 66.5336C198.104 66.5336 198.625 66.9399 198.625 67.7524ZM216.969 109.877C216.427 110.961 215.708 111.502 214.812 111.502C213.917 111.502 213.469 111.044 213.469 110.127C213.469 109.565 213.74 108.95 214.281 108.284C215.365 106.992 216.396 105.502 217.375 103.815L218.969 100.971L200.406 66.9399H218.625L227.562 85.7836L235.562 71.5649C236.146 70.4815 236.646 69.3878 237.062 68.2836C237.479 67.1586 238.031 66.5961 238.719 66.5961C239.573 66.5961 240 67.0232 240 67.8774C240 68.3774 239.812 68.9503 239.438 69.5961L218.062 107.721C217.833 108.138 217.646 108.482 217.5 108.752L216.969 109.877Z" fill="black"/>
</svg>
